<svg width="413" height="554" viewBox="0 0 413 554" fill="none" xmlns="http://www.w3.org/2000/svg">
  <path d="M164.218 342.838V553.242H192.748V371.368H221.277V553.242H246.24V342.838H164.218Z" fill="#D4AF37"/>
  <path d="M114.292 75.3758V553.242H139.255V75.3758H114.292Z" fill="#D4AF37"/>
  <path d="M274.77 75.3758H303.299V553.242H274.77V75.3758Z" fill="#D4AF37"/>
  <path d="M164.218 0.486328V317.875H246.24V0.486328H221.277V289.346H192.748V0.486328H164.218Z" fill="#D4AF37"/>
  <path fill-rule="evenodd" clip-rule="evenodd" d="M90.1069 75.3758H61.5775V520.63V553.242H90.1069V75.3758ZM31.6009 520.63V468.583H0.306641V553.242H31.6009V520.63Z" fill="#D4AF37"/>
  <path fill-rule="evenodd" clip-rule="evenodd" d="M356.791 75.3758H328.262V553.242H356.791V520.63V75.3758ZM381.047 520.63V553.242H413V468.583H381.047V520.63Z" fill="#D4AF37"/>
</svg>
